<?xml version="1.0" encoding="UTF-8" standalone="no"?>
<svg
   xmlns:dc="http://purl.org/dc/elements/1.1/"
   xmlns:cc="http://creativecommons.org/ns#"
   xmlns:rdf="http://www.w3.org/1999/02/22-rdf-syntax-ns#"
   xmlns:svg="http://www.w3.org/2000/svg"
   xmlns="http://www.w3.org/2000/svg"
   xmlns:sodipodi="http://sodipodi.sourceforge.net/DTD/sodipodi-0.dtd"
   xmlns:inkscape="http://www.inkscape.org/namespaces/inkscape"
   width="1536"
   height="1536"
   version="1.1"
   id="svg4"
   sodipodi:docname="btc.svg"
   inkscape:version="1.0.1 (3bc2e813f5, 2020-09-07)">
  <metadata
     id="metadata10">
    <rdf:RDF>
      <cc:Work
         rdf:about="">
        <dc:format>image/svg+xml</dc:format>
        <dc:type
           rdf:resource="http://purl.org/dc/dcmitype/StillImage" />
      </cc:Work>
    </rdf:RDF>
  </metadata>
  <defs
     id="defs8" />
  <sodipodi:namedview
     pagecolor="#ffffff"
     bordercolor="#666666"
     borderopacity="1"
     objecttolerance="10"
     gridtolerance="10"
     guidetolerance="10"
     inkscape:pageopacity="0"
     inkscape:pageshadow="2"
     inkscape:window-width="1920"
     inkscape:window-height="1025"
     id="namedview6"
     showgrid="false"
     inkscape:zoom="0.54622396"
     inkscape:cx="768"
     inkscape:cy="694.76996"
     inkscape:window-x="0"
     inkscape:window-y="27"
     inkscape:window-maximized="1"
     inkscape:current-layer="svg4" />
  <path
     d="m 1206.2353,492.96388 c 11.1734,114.31189 -36.9579,183.07092 -112.5929,221.74787 125.4853,30.08208 204.5581,104.85752 189.0874,272.45766 -19.7683,208.85559 -174.4761,264.72229 -396.22394,276.75509 v 219.1694 H 754.14473 v -215.7314 c -33.52003,0 -68.75903,0 -104.85752,-0.8595 v 216.5909 H 516.92607 v -219.1694 c -30.94156,0 -61.88313,-0.8595 -93.68418,-0.8595 H 251.34432 l 26.64412,-157.2863 c 97.12213,1.719 95.40316,0 95.40316,0 36.95797,0 47.27183,-26.6441 49.85029,-43.8338 V 716.43073 h 13.75181 c -5.15693,-0.85949 -10.31386,-0.85949 -13.75181,-0.85949 V 468.89822 c -5.15692,-27.50362 -22.34668,-58.44518 -76.49442,-58.44518 0,0 1.71898,-1.71897 -95.40315,0 V 269.49703 l 182.21143,0.85949 c 26.64412,0 55.00722,0 83.37032,-0.85949 V 52.906082 H 649.28721 V 265.19959 c 35.239,-0.85949 70.478,-1.71898 104.85752,-1.71898 V 52.906082 H 886.50586 V 269.49703 c 170.17854,14.61129 305.11814,67.04005 319.72944,223.46685 z m -184.7899,468.42089 c 0,-170.1786 -280.19299,-145.25345 -369.57973,-145.25345 v 290.50688 c 89.38674,0 369.57973,18.9088 369.57973,-145.25343 z M 960.42182,552.26854 c 0,-155.5673 -233.7807,-132.36113 -308.55615,-132.36113 v 263.86278 c 74.77545,0 308.55615,17.18976 308.55615,-131.50165 z"
     id="path2"
     style="stroke-width:0.859488;fill:#ffffff" />
</svg>
