<?xml version="1.0" encoding="UTF-8" standalone="no"?>
<svg
   xmlns:dc="http://purl.org/dc/elements/1.1/"
   xmlns:cc="http://creativecommons.org/ns#"
   xmlns:rdf="http://www.w3.org/1999/02/22-rdf-syntax-ns#"
   xmlns:svg="http://www.w3.org/2000/svg"
   xmlns="http://www.w3.org/2000/svg"
   xmlns:sodipodi="http://sodipodi.sourceforge.net/DTD/sodipodi-0.dtd"
   xmlns:inkscape="http://www.inkscape.org/namespaces/inkscape"
   width="1536"
   height="1536"
   version="1.1"
   id="svg4787"
   sodipodi:docname="git.svg"
   inkscape:version="0.92.4 (5da689c313, 2019-01-14)">
  <metadata
     id="metadata4793">
    <rdf:RDF>
      <cc:Work
         rdf:about="">
        <dc:format>image/svg+xml</dc:format>
        <dc:type
           rdf:resource="http://purl.org/dc/dcmitype/StillImage" />
      </cc:Work>
    </rdf:RDF>
  </metadata>
  <defs
     id="defs4791" />
  <sodipodi:namedview
     pagecolor="#ffffff"
     bordercolor="#666666"
     borderopacity="1"
     objecttolerance="10"
     gridtolerance="10"
     guidetolerance="10"
     inkscape:pageopacity="0"
     inkscape:pageshadow="2"
     inkscape:window-width="1279"
     inkscape:window-height="701"
     id="namedview4789"
     showgrid="false"
     inkscape:zoom="0.15364583"
     inkscape:cx="429.55931"
     inkscape:cy="767.99996"
     inkscape:window-x="0"
     inkscape:window-y="27"
     inkscape:window-maximized="0"
     inkscape:current-layer="svg4787" />
  <path
     d="m 514.32007,1288.8445 c 0,-74.1656 -81.75068,-84.279 -139.06043,-84.279 -59.83812,0 -133.16089,12.6418 -133.16089,87.6502 0,75.8511 86.80742,85.1218 144.95996,85.1218 61.5237,0 127.26136,-15.1702 127.26136,-88.493 z M 464.59543,652.53771 c 0,-63.20929 -30.34046,-120.51904 -100.29206,-120.51904 -77.53673,0 -104.50602,51.41022 -104.50602,122.20462 C 259.79735,724.1749 290.1378,768 364.30337,768 437.62614,768 464.59543,720.80373 464.59543,652.53771 Z M 691.30607,379.47359 v 170.24368 c -21.91255,7.58511 -43.82511,13.48465 -66.58045,18.54139 8.4279,22.75534 13.48465,46.35347 13.48465,70.7944 0,142.43159 -87.65021,251.15156 -227.55343,277.27806 -42.13952,8.42791 -66.58045,26.12651 -66.58045,71.63719 0,128.94699 340.48735,41.29669 340.48735,278.96369 0,192.999 -130.63252,256.2083 -305.93294,256.2083 -144.11717,0 -308.461308,-48.0391 -308.461308,-221.6539 0,-101.1349 61.523708,-159.2874 153.387868,-189.6279 v -3.3712 c -38.76836,-23.5981 -56.46696,-60.6809 -56.46696,-106.1915 0,-42.98236 9.27069,-96.07816 53.0958,-115.46234 v -3.37117 C 135.06436,854.80742 79.440187,737.65954 79.440187,652.53771 c 0,-157.60182 122.204613,-273.06412 278.120853,-273.06412 52.25301,0 104.50602,13.48465 150.01671,39.61116 63.20928,0 125.57577,-16.85581 183.72832,-39.61116 z M 959.31344,1121.972 H 772.21395 c 3.37116,-37.9256 3.37116,-75.0084 3.37116,-112.9339 V 495.77868 c 0,-36.23999 0.84279,-72.47998 -3.37116,-107.87718 h 187.09949 c -4.21396,34.55441 -3.37117,69.95161 -3.37117,104.50602 v 516.63058 c 0,37.9255 0,75.0083 3.37117,112.9339 z M 1465.8305,934.87251 v 165.18689 c -44.6679,24.441 -96.0781,32.8689 -146.6455,32.8689 -180.3572,0 -201.427,-142.43162 -201.427,-289.07716 V 548.03169 h 1.6856 v -3.37116 c -10.9563,0 -21.0697,-1.68559 -31.1832,-1.68559 -16.8558,0 -33.7116,2.52838 -49.7247,5.05675 V 387.9015 h 80.9079 v -64.05208 c 0,-25.28371 -0.8428,-50.56743 -5.0567,-75.00835 h 191.3134 c -6.7423,46.35348 -5.0567,92.70695 -5.0567,139.06043 h 144.1171 v 160.13019 c -24.4409,0 -48.8818,-3.37116 -72.4799,-3.37116 h -71.6372 v 307.61852 c 0,49.72463 10.9563,110.40555 73.3227,110.40555 32.8689,0 64.8949,-9.2707 91.8642,-27.81209 z M 980.3832,136.74994 c 0,63.20928 -48.88185,122.20462 -113.77672,122.20462 -66.58044,0 -116.30508,-58.15255 -116.30508,-122.20462 0,-64.894868 48.88185,-123.8902 116.30508,-123.8902 66.58045,0 113.77672,60.680913 113.77672,123.8902 z"
     id="path4785"
     style="fill:#ffffff;stroke-width:0.84279048"
     inkscape:connector-curvature="0" />
</svg>
