<?xml version="1.0" encoding="UTF-8" standalone="no"?>
<svg
   xmlns:dc="http://purl.org/dc/elements/1.1/"
   xmlns:cc="http://creativecommons.org/ns#"
   xmlns:rdf="http://www.w3.org/1999/02/22-rdf-syntax-ns#"
   xmlns:svg="http://www.w3.org/2000/svg"
   xmlns="http://www.w3.org/2000/svg"
   xmlns:sodipodi="http://sodipodi.sourceforge.net/DTD/sodipodi-0.dtd"
   xmlns:inkscape="http://www.inkscape.org/namespaces/inkscape"
   width="1536"
   height="1796"
   viewBox="0 0 1536 1796"
   version="1.1"
   id="svg5374"
   sodipodi:docname="liberapay.svg"
   inkscape:version="0.92.4 (5da689c313, 2019-01-14)">
  <metadata
     id="metadata5380">
    <rdf:RDF>
      <cc:Work
         rdf:about="">
        <dc:format>image/svg+xml</dc:format>
        <dc:type
           rdf:resource="http://purl.org/dc/dcmitype/StillImage" />
      </cc:Work>
    </rdf:RDF>
  </metadata>
  <defs
     id="defs5378" />
  <sodipodi:namedview
     pagecolor="#ffffff"
     bordercolor="#666666"
     borderopacity="1"
     objecttolerance="10"
     gridtolerance="10"
     guidetolerance="10"
     inkscape:pageopacity="0"
     inkscape:pageshadow="2"
     inkscape:window-width="1437"
     inkscape:window-height="743"
     id="namedview5376"
     showgrid="false"
     inkscape:zoom="0.13140312"
     inkscape:cx="874.54238"
     inkscape:cy="898.00001"
     inkscape:window-x="0"
     inkscape:window-y="27"
     inkscape:window-maximized="0"
     inkscape:current-layer="svg5374" />
  <path
     d="M 622.74267,23.457627 340.63784,67.143752 109.52636,1033.4903 c -13.392573,57.0434 -20.321727,110.748 -20.925252,161.082 -0.627439,50.3591 9.681457,94.9722 30.913022,133.7948 21.23612,38.8488 56.41596,69.4589 105.56797,91.8998 49.15087,22.4398 116.76507,33.6505 202.93027,33.6505 l 54.62018,-223.8566 c -31.55982,-2.4118 -56.16316,-7.8823 -73.75421,-16.4 -17.58992,-8.471 -29.99066,-19.6772 -37.27737,-33.6494 -7.28785,-13.9459 -10.6676,-30.0168 -10.03902,-48.2091 0.60353,-18.1946 3.32622,-38.2521 8.20111,-60.0906 L 622.74267,23.55328 Z M 1057.9175,456.8412 c -72.79886,0 -140.45975,5.73691 -202.93145,17.24602 -62.49562,11.55808 -118.04728,24.61472 -166.54681,39.16538 L 386.3509,1772.5424 h 269.334 l 81.90864,-329.3711 c 41.23558,7.2878 82.4928,10.9329 123.75571,10.9329 84.91032,0 163.48935,-14.9264 235.68355,-44.629 72.1714,-29.7276 133.9997,-71.2536 185.5897,-124.6519 51.4181,-53.3733 91.8042,-116.7343 120.9283,-190.1606 29.1241,-73.3522 43.6872,-154.41137 43.6872,-242.98839 h 0.1879 c 0,-54.60424 -7.5873,-105.78547 -22.7153,-153.73043 -15.202,-47.91991 -38.5425,-89.78635 -70.0784,-125.59476 -31.6589,-35.78336 -71.9664,-64.01013 -121.1196,-84.64159 -49.1246,-20.60526 -107.6712,-30.91643 -175.5974,-30.91643 z m -34.4966,227.43795 c 57.0172,0 97.0594,18.2333 120.1266,54.62018 23.0205,36.38575 34.5456,80.70728 34.5456,132.8496 0,53.39832 -7.5646,102.19505 -22.7154,146.47327 -15.202,44.325 -36.4267,82.2298 -63.7163,113.7669 -27.3146,31.5609 -60.3799,56.1403 -99.20367,73.7075 -38.82376,17.6138 -81.90522,26.39 -129.22274,26.39 -30.33114,0 -55.78852,-2.3902 -76.39379,-7.2594 L 914.22604,695.21093 c 33.94773,-7.28785 70.34601,-10.93292 109.19486,-10.93292 z"
     id="path5372"
     style="fill:#ffffff;stroke-width:1.13872707"
     inkscape:connector-curvature="0" />
</svg>
