<?xml version="1.0" encoding="UTF-8" standalone="no"?>
<svg
   xmlns:dc="http://purl.org/dc/elements/1.1/"
   xmlns:cc="http://creativecommons.org/ns#"
   xmlns:rdf="http://www.w3.org/1999/02/22-rdf-syntax-ns#"
   xmlns:svg="http://www.w3.org/2000/svg"
   xmlns="http://www.w3.org/2000/svg"
   xmlns:sodipodi="http://sodipodi.sourceforge.net/DTD/sodipodi-0.dtd"
   xmlns:inkscape="http://www.inkscape.org/namespaces/inkscape"
   width="1536"
   height="1792"
   viewBox="0 0 1536 1792"
   version="1.1"
   id="svg5961"
   sodipodi:docname="mastodon.svg"
   inkscape:version="0.92.4 (5da689c313, 2019-01-14)">
  <metadata
     id="metadata5967">
    <rdf:RDF>
      <cc:Work
         rdf:about="">
        <dc:format>image/svg+xml</dc:format>
        <dc:type
           rdf:resource="http://purl.org/dc/dcmitype/StillImage" />
      </cc:Work>
    </rdf:RDF>
  </metadata>
  <defs
     id="defs5965" />
  <sodipodi:namedview
     pagecolor="#ffffff"
     bordercolor="#666666"
     borderopacity="1"
     objecttolerance="10"
     gridtolerance="10"
     guidetolerance="10"
     inkscape:pageopacity="0"
     inkscape:pageshadow="2"
     inkscape:window-width="1228"
     inkscape:window-height="712"
     id="namedview5963"
     showgrid="false"
     inkscape:zoom="0.13169643"
     inkscape:cx="676.88136"
     inkscape:cy="896.00002"
     inkscape:window-x="0"
     inkscape:window-y="27"
     inkscape:window-maximized="0"
     inkscape:current-layer="svg5961" />
  <path
     d="m 1474.2219,1053.3499 c -21.6861,111.5651 -194.2265,233.6626 -392.3927,257.3253 -103.33309,12.3293 -205.07473,23.6616 -313.56451,18.6855 -177.42238,-8.1283 -317.42362,-42.3482 -317.42362,-42.3482 0,17.2718 1.0661,33.7176 3.19638,49.0983 23.06526,175.0981 173.62283,185.5862 316.23939,190.4768 143.94486,4.9243 272.11626,-35.4896 272.11626,-35.4896 l 5.9135,130.1326 c 0,0 -100.68134,54.0667 -280.04287,64.0103 -98.90158,5.4361 -221.7069,-2.4876 -364.74029,-40.3477 C 93.309924,1562.7842 40.187324,1232.1054 31.795854,896.58872 29.306363,796.96968 30.838284,703.03459 30.843086,624.47058 30.852691,281.38175 255.63592,180.81571 255.63592,180.81571 c 113.3439,-52.05554 307.83639,-73.9452 510.03171,-75.59718 h 4.96842 c 202.19435,1.65294 396.81265,23.54164 510.15085,75.59718 0,0 224.7841,100.56508 224.7841,443.65487 0,0 2.819,253.13288 -31.3491,428.87932 z M 1240.42,651.08662 c 0,-84.90395 -20.8523,-153.04802 -65.0322,-202.28848 -44.7859,-49.91661 -103.4282,-75.50401 -176.21411,-75.50401 -84.23069,0 -148.00951,32.37011 -190.17143,97.12187 l -41.00265,68.7213 -40.99498,-68.72034 c -42.17056,-64.75368 -105.95034,-97.12475 -190.17237,-97.12475 -72.79458,0 -131.4369,25.58836 -176.21413,75.50497 -43.42204,49.91757 -65.03989,117.38549 -65.03989,202.28848 V 1066.51 H 460.16033 V 663.29781 c 0,-84.99808 35.76147,-128.1387 107.29498,-128.1387 79.09322,0 118.74068,51.17576 118.74068,152.37186 v 220.70035 h 163.613 V 687.53193 c 0,-101.1961 39.63977,-152.37186 118.73107,-152.37186 71.53254,0 107.29694,43.14062 107.29694,128.1387 v 403.21313 h 164.5811 V 651.08758 Z"
     id="path5959"
     style="fill:#ffffff;stroke-width:0.96045202"
     inkscape:connector-curvature="0" />
</svg>
