<?xml version="1.0" encoding="UTF-8" standalone="no"?>
<svg
   xmlns:dc="http://purl.org/dc/elements/1.1/"
   xmlns:cc="http://creativecommons.org/ns#"
   xmlns:rdf="http://www.w3.org/1999/02/22-rdf-syntax-ns#"
   xmlns:svg="http://www.w3.org/2000/svg"
   xmlns="http://www.w3.org/2000/svg"
   xmlns:sodipodi="http://sodipodi.sourceforge.net/DTD/sodipodi-0.dtd"
   xmlns:inkscape="http://www.inkscape.org/namespaces/inkscape"
   width="1536"
   height="1536"
   version="1.1"
   id="svg4733"
   sodipodi:docname="twitter.svg"
   inkscape:version="0.92.4 (5da689c313, 2019-01-14)">
  <metadata
     id="metadata4739">
    <rdf:RDF>
      <cc:Work
         rdf:about="">
        <dc:format>image/svg+xml</dc:format>
        <dc:type
           rdf:resource="http://purl.org/dc/dcmitype/StillImage" />
      </cc:Work>
    </rdf:RDF>
  </metadata>
  <defs
     id="defs4737" />
  <sodipodi:namedview
     pagecolor="#ffffff"
     bordercolor="#666666"
     borderopacity="1"
     objecttolerance="10"
     gridtolerance="10"
     guidetolerance="10"
     inkscape:pageopacity="0"
     inkscape:pageshadow="2"
     inkscape:window-width="1920"
     inkscape:window-height="1025"
     id="namedview4735"
     showgrid="false"
     inkscape:zoom="0.29947917"
     inkscape:cx="768"
     inkscape:cy="768"
     inkscape:window-x="0"
     inkscape:window-y="27"
     inkscape:window-maximized="1"
     inkscape:current-layer="svg4733" />
  <path
     d="m 1525.9478,298.61099 c -42.3219,61.55922 -95.2244,116.38539 -155.8217,160.63108 0.9618,13.46607 0.9618,26.93215 0.9618,40.39823 0,410.71538 -312.6054,883.9518 -883.95182,883.9518 -176.02087,0 -339.53754,-50.9787 -477.083906,-139.4701 25.00843,2.8856 49.054998,3.8475 75.025292,3.8475 145.241274,0 278.940194,-49.055 385.706954,-132.7371 -136.58451,-2.8855 -251.04617,-92.3388 -290.48254,-215.45721 19.23725,2.88559 38.4745,4.80932 58.67362,4.80932 27.89402,0 55.78804,-3.84745 81.75833,-10.58049 C 178.37815,865.14814 71.611388,740.10598 71.611388,589.09353 v -3.84745 C 112.97149,608.33079 161.06462,622.75873 212.04335,624.68245 128.36129,568.89442 73.535113,473.67001 73.535113,365.94138 c 0,-57.71176 15.389804,-110.61421 42.321957,-156.78362 152.93618,188.52509 382.82137,311.64352 640.60058,325.1096 -4.80932,-23.08471 -7.6949,-47.13128 -7.6949,-71.17784 0,-171.21157 138.50823,-310.68166 310.68165,-310.68166 89.4532,0 170.2497,37.51264 226.9996,98.10999 70.216,-13.46607 137.5464,-39.43637 197.1819,-75.02529 -23.0847,72.13971 -72.1397,132.73706 -136.5845,171.21157 62.521,-6.73304 123.1184,-24.04657 178.9064,-48.09314 z"
     id="path4731"
     style="fill:#ffffff;stroke-width:0.96186274"
     inkscape:connector-curvature="0" />
</svg>
