<?xml version="1.0" encoding="UTF-8" standalone="no"?>
<svg
   height="64"
   viewBox="0 0 128 128"
   width="64"
   version="1.1"
   id="svg9"
   sodipodi:docname="xfce4-cpugraph-plugin.svg"
   inkscape:version="1.1.2 (0a00cf5339, 2022-02-04, custom)"
   xmlns:inkscape="http://www.inkscape.org/namespaces/inkscape"
   xmlns:sodipodi="http://sodipodi.sourceforge.net/DTD/sodipodi-0.dtd"
   xmlns="http://www.w3.org/2000/svg"
   xmlns:svg="http://www.w3.org/2000/svg">
  <defs
     id="defs13" />
  <sodipodi:namedview
     id="namedview11"
     pagecolor="#ffffff"
     bordercolor="#666666"
     borderopacity="1.0"
     inkscape:pageshadow="2"
     inkscape:pageopacity="0.0"
     inkscape:pagecheckerboard="0"
     showgrid="false"
     inkscape:zoom="11.359375"
     inkscape:cx="31.955983"
     inkscape:cy="32"
     inkscape:window-width="1920"
     inkscape:window-height="1020"
     inkscape:window-x="0"
     inkscape:window-y="0"
     inkscape:window-maximized="1"
     inkscape:current-layer="svg9" />
  <linearGradient
     id="a"
     gradientUnits="userSpaceOnUse"
     x1="0"
     x2="128"
     y1="128"
     y2="0">
    <stop
       offset="0"
       stop-color="#333"
       id="stop2" />
    <stop
       offset="1"
       stop-color="#5d5d5d"
       id="stop4" />
  </linearGradient>
  <path
     d="m42.298536 7.6943856c-2.32931 0-4.202402 1.8730902-4.202402 4.2024014v13.52648h8.404803v-13.52648c0-2.3293112-1.873088-4.2024014-4.202401-4.2024014zm14.445755 0c-2.32931 0-4.16957 1.8730902-4.16957 4.2024014v13.52648h8.404803v-13.52648c0-2.3293112-1.905923-4.2024014-4.235233-4.2024014zm14.511418 0c-2.32931 0-4.235233 1.8730902-4.235233 4.2024014v13.52648h8.404803v-13.52648c0-2.3293112-1.84026-4.2024014-4.16957-4.2024014zm14.478586 0c-2.32931 0-4.235232 1.8730902-4.235232 4.2024014v13.52648h8.404803v-13.52648c0-2.3293112-1.840257-4.2024014-4.169571-4.2024014zm-46.029429 20.6508634c-6.298139 0-11.392448 5.061474-11.392448 11.359617v22.821831c4.497318.0063 7.689552.01377 8.033399.01847 1.093672-4.387179 2.051057-8.290274 2.761931-10.881511.410045-1.49467.748909-2.680188 1.093691-3.619646.344781-.93946.305206-1.578648 1.543069-2.507488.309466-.232209.814274-.494981 1.434316-.512988.620049-.01801 1.225027.249761 1.584108.53556.718168.571597.833518 1.054359.98699 1.477407.306943.846095.454326 1.724451.61969 2.977384.330729 2.505866.621428 6.293062.98699 11.546344v.02052c.311694 5.126053.61943 8.912828.921327 11.975202.549773-3.052401 1.123886-6.496225 1.756473-9.853482.0092-.08271.01127-.09006.02052-.172365 1.331405-11.839004 2.358524-19.702674 3.190789-24.633705.419033-2.482657.780197-4.228805 1.136782-5.482821.178292-.627007.354244-1.140835.599171-1.629251.244935-.488418.460787-1.254551 1.842654-1.584109.690934-.16478 1.528991.08713 1.969876.406287.440893.319161.625397.62452.771535.878236.29228.50743.399043.901575.51504 1.350186.231992.897221.383008 1.954261.53556 3.170269.305112 2.432016.556764 5.442924.835146 7.904125v.02052l.02052.02257c1.693678 19.258549 2.374746 28.076248 3.106658 36.352414.92913-7.642838 1.996095-17.069827 3.256451-26.905219.815349-6.362626 1.590839-11.850687 2.269461-15.059289.169656-.80215.326437-1.466815.51504-2.035538.0943-.284363.191601-.543043.363196-.857717.171603-.314674.296463-.874903 1.456887-1.241432.580216-.183265 1.424834-.06057 1.906265.235974.481439.296547.676653.600582.814626.835145.275952.469128.316123.75768.385767 1.071121.132674.597035.197136 1.284635.256495 2.162759h.02257c2.146011 18.864859 3.455771 29.353826 4.497883 36.652 1.47115-12.735895 2.511577-20.379373 3.29749-24.120717.209544-.997518.40069-1.74478.621742-2.376163.110534-.315692.223103-.601944.408339-.921327.18524-.319383.407965-.76961 1.177822-1.136784.769865-.367173 2.091334-.06888 2.591617.365249.500247.434128.622685.783695.748963 1.07112.252557.574847.354582 1.056661.47195 1.64977.469454 2.372441.791459 6.152652 1.264003 9.317923.236281 1.582635.507809 2.998079.771535 3.792011 1.704716-.004 5.937016-.05243 7.977997-.09439v-23.004455c0-6.298142-5.061476-11.359617-11.359617-11.359617zm-27.808079 9.750885c-2.3293122 0-4.2024014 1.840258-4.2024014 4.169571 0 2.329309 1.8730892 4.235232 4.2024014 4.235232h13.52648v-8.404803zm90.679943 0v8.404803h13.52648c2.32931 0 4.2024-1.873091 4.2024-4.202401 0-2.329309-1.87309-4.202402-4.2024-4.202402zm-45.539009 5.856277c-.736252 4.861706-1.530254 10.405444-2.63471 20.242525l-.02052.08618v.06361c-.70489 3.724535-1.364583 7.762241-1.992447 11.160578-.627856 3.398338-1.01218 5.89325-1.992448 7.754333-.245065.465271-.462123 1.098092-1.606679 1.520498-.572276.211202-1.407041.160613-1.949356-.106702-.542308-.267315-.825004-.61086-1.028029-.898755-.812085-1.151581-.888113-2.094946-1.177822-3.74892-.57888-3.304834-1.111392-8.980291-1.67029-18.165948-.000528-.0087.000529-.0119 0-.02052-.181398-2.605994-.31636-3.738644-.471949-5.612094-.672865 2.608291-1.334886 5.144013-2.314604 9.061429l-.426807 1.713382-1.756472-.04309s-4.068192-.02763-9.683171-.03899v21.375204c0 6.298142 5.094309 11.392448 11.392448 11.392448h48.590268c6.298141 0 11.359617-5.094306 11.359617-11.392448v-21.206941c-2.864079.0039-5.912329.02052-8.792623.02052-1.009628 0-2.002348-.496658-2.421305-1.028029-.495365-.628288-.725529-1.234544-.941847-1.885745-.389951-1.173963-.645572-2.596672-.878236-4.091596-.604027 4.32991-1.302898 9.93626-2.185331 17.693997v.02257.02052c-.494531 3.661351-.832501 6.529992-1.327614 8.376075-.123777.461521-.229152.851772-.535561 1.370706-.153205.259467-.3602.591708-.878236.921327-.51803.329611-1.508388.459432-2.162759.192884-1.308734-.533096-1.341224-1.194103-1.54307-1.670291-.201838-.476194-.361856-.968476-.51504-1.58616-1.010127-4.07322-2.494767-16.051062-4.711286-35.195113-.199536 1.462198-.353975 2.112714-.558131 3.705829-1.621319 12.652161-3.354868 28.609796-4.241389 34.872955-.294399 2.079917-.530356 3.740607-.771535 4.992405-.120589.625895-.251938 1.143795-.383715 1.606679-.131768.462885-.158206.815307-.644313 1.456888-.243049.3208-.763059.899961-1.756473.962366-.993408.06238-1.731209-.562228-2.012967-.919275-.563513-.714102-.546539-1.069362-.664832-1.543067-.236572-.947411-.417632-2.191687-.61969-3.962324-.807129-7.072958-1.848379-22.227451-4.027986-47.020523-.0027-.03364.0027-.02994 0-.06361-.01419-.126376-.02903-.257449-.04309-.385767zm-45.140934 8.62231c-2.3293122 0-4.2024014 1.840259-4.2024014 4.16957 0 2.32931 1.8730892 4.235233 4.2024014 4.235233h13.52648v-8.404803zm90.679943 0v8.404803h13.52648c2.32931 0 4.2024-1.905923 4.2024-4.235233 0-2.329311-1.87309-4.16957-4.2024-4.16957zm-90.679943 14.445755c-2.3293122 0-4.2024014 1.905923-4.2024014 4.235233s1.8730892 4.16957 4.2024014 4.16957h13.52648v-8.404803zm90.679943 0v8.404803h13.52648c2.32931 0 4.2024-1.84026 4.2024-4.16957s-1.87309-4.235233-4.2024-4.235233zm-90.679943 14.478587c-2.3293122 0-4.2024014 1.873091-4.2024014 4.202401s1.8730892 4.202402 4.2024014 4.202402h13.52648v-8.404803zm90.679943 0v8.404803h13.52648c2.32931 0 4.2024-1.84026 4.2024-4.169571 0-2.32931-1.87309-4.235232-4.2024-4.235232zm-20.603666 3.62375c.01433.04025.05489.172123.06361.192883.02295.05406.04831-.04367-.06361-.192883zm-43.87693 17.453917v13.52648c0 2.32931 1.84026 4.2024 4.169571 4.2024 2.329312 0 4.235232-1.87309 4.235232-4.2024v-13.52648zm14.478587 0v13.52648c0 2.32931 1.840259 4.2024 4.16957 4.2024 2.32931 0 4.235233-1.87309 4.235233-4.2024v-13.52648zm14.445755 0v13.52648c0 2.32931 1.905923 4.2024 4.235233 4.2024s4.16957-1.87309 4.16957-4.2024v-13.52648zm14.478587 0v13.52648c0 2.32931 1.873091 4.2024 4.202401 4.2024 2.329312 0 4.202402-1.87309 4.202402-4.2024v-13.52648z"
     fill="url(#a)"
     id="path7"
     style="fill:#ffffff" />
</svg>
