<?xml version="1.0" encoding="UTF-8" standalone="no"?>
<!-- Created with Inkscape (http://www.inkscape.org/) -->

<svg
   xmlns:dc="http://purl.org/dc/elements/1.1/"
   xmlns:cc="http://creativecommons.org/ns#"
   xmlns:rdf="http://www.w3.org/1999/02/22-rdf-syntax-ns#"
   xmlns:svg="http://www.w3.org/2000/svg"
   xmlns="http://www.w3.org/2000/svg"
   xmlns:sodipodi="http://sodipodi.sourceforge.net/DTD/sodipodi-0.dtd"
   xmlns:inkscape="http://www.inkscape.org/namespaces/inkscape"
   width="16"
   height="16"
   viewBox="0 0 4.2333334 4.2333334"
   version="1.1"
   id="svg8"
   inkscape:version="0.92.4 (5da689c313, 2019-01-14)"
   sodipodi:docname="z_xmas.svg"
   style="enable-background:new"
   inkscape:export-filename="/home/alex/Documents/git/zrythm-web/static/images/z_xmas.png"
   inkscape:export-xdpi="384"
   inkscape:export-ydpi="384">
  <defs
     id="defs2">
    <filter
       inkscape:collect="always"
       style="color-interpolation-filters:sRGB"
       id="filter939">
      <feBlend
         inkscape:collect="always"
         mode="overlay"
         in2="BackgroundImage"
         id="feBlend941" />
    </filter>
  </defs>
  <sodipodi:namedview
     id="base"
     pagecolor="#ffffff"
     bordercolor="#666666"
     borderopacity="1.0"
     inkscape:pageopacity="0"
     inkscape:pageshadow="2"
     inkscape:zoom="15.839192"
     inkscape:cx="-12.215823"
     inkscape:cy="14.081053"
     inkscape:document-units="px"
     inkscape:current-layer="g915"
     showgrid="false"
     inkscape:window-width="1920"
     inkscape:window-height="1025"
     inkscape:window-x="0"
     inkscape:window-y="27"
     inkscape:window-maximized="1"
     units="px"
     width="128px"
     showguides="true"
     inkscape:guide-bbox="true">
    <sodipodi:guide
       position="1.7363282,0.72051713"
       orientation="0,1"
       id="guide844"
       inkscape:locked="false" />
    <sodipodi:guide
       position="0.34844681,3.5021857"
       orientation="0,1"
       id="guide846"
       inkscape:locked="false" />
    <sodipodi:guide
       position="1.1752697,2.710798"
       orientation="1,0"
       id="guide848"
       inkscape:locked="false" />
    <sodipodi:guide
       position="3.053339,2.2796689"
       orientation="1,0"
       id="guide850"
       inkscape:locked="false" />
    <sodipodi:guide
       position="2.2147043,2.1143044"
       orientation="0,1"
       id="guide852"
       inkscape:locked="false" />
    <sodipodi:guide
       position="2.1143044,2.5867746"
       orientation="1,0"
       id="guide854"
       inkscape:locked="false" />
    <sodipodi:guide
       position="3.5907739,0.89769347"
       orientation="1,0"
       id="guide856"
       inkscape:locked="false" />
    <sodipodi:guide
       position="0.64964659,0.95084637"
       orientation="1,0"
       id="guide858"
       inkscape:locked="false" />
    <sodipodi:guide
       position="2.5395276,1.3760696"
       orientation="0,1"
       id="guide860"
       inkscape:locked="false" />
    <sodipodi:guide
       position="0.64964659,2.858445"
       orientation="0,1"
       id="guide862"
       inkscape:locked="false" />
  </sodipodi:namedview>
  <metadata
     id="metadata5">
    <rdf:RDF>
      <cc:Work
         rdf:about="">
        <dc:format>image/svg+xml</dc:format>
        <dc:type
           rdf:resource="http://purl.org/dc/dcmitype/StillImage" />
        <dc:title />
      </cc:Work>
    </rdf:RDF>
  </metadata>
  <g
     inkscape:groupmode="layer"
     id="layer2"
     inkscape:label="Layer 2"
     style="filter:url(#filter939)"
     transform="translate(0,-29.633333)" />
  <g
     inkscape:label="Layer 1"
     inkscape:groupmode="layer"
     id="layer1"
     transform="translate(0,-292.76666)">
    <g
       id="g903"
       transform="matrix(0.8142468,0,0,0.8142468,0.13413594,55.423816)">
      <path
         sodipodi:nodetypes="cccc"
         inkscape:connector-curvature="0"
         id="path815"
         d="m 0.64964658,294.14155 c 0,0 1.22629472,-0.99569 2.40369242,-0.64374 0.6712179,0.31781 -2.5374916,2.38588 -1.8799773,2.7832 1.1090266,0.3869 2.4180656,-0.65752 2.4180656,-0.65752"
         style="fill:none;stroke:#ff6600;stroke-width:0.41494602;stroke-linecap:butt;stroke-linejoin:miter;stroke-miterlimit:4;stroke-dasharray:none;stroke-opacity:1" />
    </g>
    <g
       transform="matrix(0.530638,0.07371608,-0.07371608,0.530638,3.4642752,277.3652)"
       style="filter:url(#filter939);enable-background:new"
       id="g915">
      <g
         id="g938"
         transform="matrix(1.6594826,-0.86160376,0.91860825,1.4327322,-31.274718,-8.9888283)">
        <path
           style="fill:#d00000;fill-rule:evenodd;stroke:#000000;stroke-width:0.00708727px"
           inkscape:connector-curvature="0"
           id="path1309"
           d="m 3.7604934,28.798532 c 0.2102931,0.131121 0.4077635,0.326266 0.5368124,0.496734 0.1291304,0.170492 0.4695652,0.6046 0.5392485,0.730789 0.067556,0.122364 0.1706121,0.18866 0.1855664,0.319072 0.00575,0.05032 -0.1824101,0.141023 -0.2155776,0.146333 -0.086126,0.01396 -0.1897576,-0.08693 -0.2446461,-0.107412 -0.1780759,-0.06651 -0.3572027,-0.146105 -0.5784533,-0.07624 0.023845,0.04452 -0.019194,-0.0085 -0.039285,0.313883 -0.00709,0.113658 -0.035439,0.405687 -0.1170291,0.438738 -0.081086,0.03285 -0.060459,-0.18306 -0.1348627,-0.171202 5.73e-5,1.05e-4 -4.85e-5,1.63e-4 8.8e-6,2.68e-4 l -4.84e-5,1.63e-4 c -2.43e-5,8.2e-5 8.8e-6,2.69e-4 -7.27e-5,2.45e-4 0,0 -1.63e-4,-4.8e-5 -1.873e-4,3.3e-5 -1.63e-4,-4.8e-5 -6.52e-4,-1.94e-4 -0.00104,-3.96e-4 -1.058e-4,5.7e-5 -2.688e-4,8e-6 -4.318e-4,-4e-5 -5.617e-4,9.9e-5 -0.00104,2.22e-4 -0.00152,3.46e-4 l -9.26e-5,-0.0012 C 3.6604268,30.8716 3.4516208,30.694296 3.2195586,30.671616 3.0887904,30.658823 2.9115349,30.532945 2.8085213,30.464089 2.6451618,30.355027 2.4074424,30.229627 2.2480737,30.179058 2.1306828,30.141854 2.0437779,30.043279 1.9324602,30.00176 c -0.065641,-0.02448 0.06078,-0.222066 0.06895,-0.244476 0.039191,-0.107663 0.2258196,-0.235634 0.3406688,-0.36445 0.1147676,-0.128841 0.2891527,-0.283959 0.4632162,-0.394428 0.1740733,-0.110502 0.4065285,-0.25148 0.5475032,-0.274214 0.1408932,-0.02276 0.1794371,-0.06797 0.407695,0.07434 z" />
        <path
           style="opacity:0.10112;fill:#0e0000;fill-rule:evenodd;stroke-width:0.00850312"
           inkscape:connector-curvature="0"
           id="path5882"
           d="m 4.1512979,29.487419 c 0.1379675,0.08019 0.1239895,0.593028 0.2825894,0.730037 0.1037822,0.08958 0.4058233,0.268694 0.3726558,0.274004 -0.086126,0.01396 -0.1897576,-0.08693 -0.2446461,-0.107412 -0.1780759,-0.06651 -0.3572027,-0.146105 -0.5784533,-0.07624 0.023845,0.04452 -0.019194,-0.0085 -0.039285,0.313883 -0.00709,0.113658 -0.035439,0.405687 -0.1170291,0.438738 -0.081086,0.03285 -0.060459,-0.18306 -0.1348627,-0.171202 5.73e-5,1.05e-4 -4.85e-5,1.63e-4 8.8e-6,2.68e-4 l -4.84e-5,1.63e-4 c -2.43e-5,8.2e-5 8.8e-6,2.69e-4 -7.27e-5,2.45e-4 0,0 -1.63e-4,-4.8e-5 -1.873e-4,3.3e-5 -1.63e-4,-4.8e-5 -6.52e-4,-1.94e-4 -0.00104,-3.96e-4 -1.058e-4,5.7e-5 -2.688e-4,8e-6 -4.318e-4,-4e-5 -5.617e-4,9.9e-5 -0.00104,2.22e-4 -0.00152,3.46e-4 l -9.26e-5,-0.0012 C 3.6604268,30.8716 3.4516208,30.694296 3.2195586,30.671616 3.0887904,30.658823 2.9115349,30.532945 2.8085213,30.464089 2.6451618,30.355027 2.4074424,30.229627 2.2480737,30.179058 2.1306828,30.141854 2.0437779,30.043279 1.9324602,30.00176 c -0.065641,-0.02448 0.405463,0.160629 0.2542148,-0.03603 -0.067052,-0.08717 0.8174259,0.383246 1.3012947,0.0784 0.4790954,-0.301921 0.5221153,-0.638814 0.6633282,-0.556713 z" />
        <path
           style="opacity:0.26966002;fill-rule:evenodd;stroke:#000000;stroke-width:0.00705895"
           inkscape:connector-curvature="0"
           id="path5878"
           d="m 5.0219335,30.289895 c -0.034661,0.01063 -0.3021045,0.198674 -0.3199523,0.174651 0.00529,-0.02797 0.03113,-0.03191 0.048001,-0.03026 -0.013286,-0.03349 -0.00886,-0.06313 0.028899,-0.05448 0.043235,0.005 0.089615,0.01316 0.058652,-0.04413 -0.012995,-0.03083 0.021819,-0.06838 0.040953,-0.087 0.038129,-0.008 0.072396,-0.03268 0.092355,-0.05052" />
        <path
           style="opacity:0.29404069;fill-rule:evenodd;stroke:#000000;stroke-width:0.00511403px"
           inkscape:connector-curvature="0"
           id="path5003"
           d="m 2.2263743,30.035109 c 0.067143,-0.0035 0.150741,-0.0058 0.2034601,0.01356 0.046178,-0.02016 0.063049,0.02664 0.09197,0.04632 0.023212,-0.05839 0.086278,0.05324 0.1250927,0.06531 0.022987,0.02413 0.022693,-0.04471 0.065101,-0.0059 0.059817,0.02408 0.096702,0.03966 0.1364575,0.07303 -0.0084,0.06856 0.079266,0.134716 0.115398,0.06748 0.046734,0.03944 0.1332466,0.114569 0.1559232,0.04067 0.066284,0.09245 0.051044,0.153559 0.1255632,0.21084 0.0097,-0.0601 0.2087635,-0.03472 0.2165742,0.0336 0.045856,0.03643 0.011741,-0.07919 0.07913,-0.03015 0.092084,5.84e-4 -0.00807,0.156656 0.1855452,0.138277 0.097179,0.02552 0.00247,0.148966 0.048587,0.226281 -0.00129,0.06641 0.096681,0.0054 0.1250498,0.0189 -0.03581,0.0951 -0.046886,0.05597 -0.044611,0.128584 -0.011519,0.08679 -0.00641,0.133464 -0.1026697,0.123655 -0.017609,-0.04879 0.00832,-0.02263 -0.020181,0.04909 -0.048098,-0.03097 -0.091144,-0.139223 -0.1108509,-0.04697 -0.01962,-0.065 -0.1242373,-0.126971 -0.1053492,-0.185138 -0.059092,-0.011 -0.1423144,0.03381 -0.1674754,-0.05821 -0.031439,-0.0718 -0.093285,-0.11919 -0.1071992,-0.07507 -0.075308,0.03758 -0.077857,0.02467 -0.1350637,-0.0076 0.036916,-0.06629 -0.1419154,-0.04751 -0.036876,-0.0932 -0.023459,-0.04343 -0.1080587,-0.08978 -0.1636632,-0.09372 -0.066227,0.05359 -0.2087176,0.01726 -0.2047657,-0.07631 0.015813,-0.0699 -0.08417,-0.125084 -0.1381849,-0.0896 -0.051401,-0.08163 -0.1874456,-0.02565 -0.2333634,-0.09022 0.074534,-0.05378 -0.041655,-0.137995 -0.081862,-0.09167 -0.039992,-0.03974 -0.056919,-0.144838 -0.1285784,-0.09446 -0.054092,-0.03737 -0.119216,-0.08627 -0.1638797,-0.121635 -0.056614,0.05139 -0.1358839,-0.04244 -0.070699,-0.105645 0.03926,-0.04732 -0.083829,0.0042 -0.036401,-0.0566 0.052647,-0.0649 0.1262351,-0.154883 0.1779761,-0.135865 0.077219,0.0034 0.1053485,0.06458 0.087987,0.134026 0.015773,-0.04978 0.086108,0.02427 0.1252071,0.05567 l 0.02265,0.01303 0.035285,-0.01187" />
        <path
           style="fill:#ffffff;fill-rule:evenodd;stroke:#000000;stroke-width:0.00511403px"
           inkscape:connector-curvature="0"
           id="path1307"
           d="m 2.1808459,30.041445 c 0.067119,-0.0035 0.1242543,0.01024 0.1769976,0.02946 0.046178,-0.02016 0.086894,0.0031 0.1158155,0.02281 0.023131,-0.05841 0.062409,0.07683 0.1012232,0.08891 0.022987,0.02413 0.022693,-0.04471 0.065044,-0.006 0.059874,0.02418 0.142637,0.0072 0.1824742,0.04058 -0.0084,0.06856 0.079266,0.134715 0.1153165,0.06746 0.046816,0.03946 0.087393,0.147067 0.1100452,0.07325 0.1022945,0.02562 0.1160055,0.137654 0.190525,0.194935 0.0097,-0.0601 0.1438259,-0.0189 0.1516124,0.0495 0.045855,0.03643 0.04642,-0.105425 0.1137275,-0.05641 0.092108,5.02e-4 0.039622,0.168705 0.150972,0.164459 0.097179,0.02552 0.055286,0.117208 0.1014306,0.194441 -0.00129,0.06641 0.043813,0.03733 0.072206,0.05074 -0.069547,0.05491 0.1335591,0.09949 0.042736,0.188969 -0.0116,0.08677 -0.049257,0.140331 -0.1455172,0.130522 -0.017633,-0.04871 -0.036175,-0.08988 -0.064705,-0.01808 -0.048098,-0.03098 -0.091226,-0.139246 -0.1109324,-0.04699 -0.019514,-0.06506 -0.1241558,-0.126947 -0.1053492,-0.185138 -0.05901,-0.01098 -0.1422329,0.03383 -0.1673939,-0.05819 -0.031496,-0.0719 -0.053415,-0.02741 -0.06733,0.01671 -0.075284,0.0375 -0.1177837,-0.06722 -0.1749088,-0.09945 0.036916,-0.06629 -0.1420212,-0.04745 -0.036876,-0.0932 -0.023483,-0.04335 -0.1080587,-0.08978 -0.1637689,-0.09366 -0.058721,0.02983 -0.2086118,0.0172 -0.20466,-0.07636 0.015788,-0.06982 -0.08417,-0.125084 -0.1382663,-0.08963 -0.05132,-0.08161 -0.1873642,-0.02563 -0.2333062,-0.09011 0.074559,-0.05386 -0.041655,-0.137994 -0.081838,-0.09175 -0.040016,-0.03966 -0.057,-0.144862 -0.1286598,-0.09449 -0.054116,-0.03729 -0.1191588,-0.08616 -0.1637982,-0.121611 -0.056614,0.05139 -0.1359897,-0.04238 -0.070723,-0.105563 0.03926,-0.04732 -0.083805,0.0041 -0.036377,-0.05668 0.022729,-0.07885 0.08862,-0.191879 0.1779519,-0.135783 0.077137,0.0034 0.1053728,0.0645 0.087987,0.134026 0.015773,-0.04978 0.1237694,0.002 0.1628928,0.03334 l 0.012288,0.01208 0.00799,0.01133" />
        <path
           style="fill:none;stroke:#000000;stroke-width:0.00708727px"
           inkscape:connector-curvature="0"
           id="path3126"
           d="m 3.9584299,30.472822 c 0.073384,-0.340561 -0.049859,-0.542196 0.058966,-0.799657 0.064318,-0.152203 0.1706022,0.0092 0.080485,0.143151" />
        <path
           style="opacity:0.11235998;fill-rule:evenodd;stroke-width:0.00850312"
           inkscape:connector-curvature="0"
           id="path3249"
           d="m 3.7557494,30.906945 c -0.00129,0.06641 0.043895,0.03735 0.072206,0.05074 -0.069523,0.05482 0.1335591,0.09949 0.042736,0.188968 -0.011519,0.08679 -0.049257,0.140332 -0.1455172,0.130523 -0.017633,-0.04871 -0.036175,-0.08988 -0.064705,-0.01808 -0.048098,-0.03098 -0.091144,-0.139223 -0.1108509,-0.04697 -0.019514,-0.06506 -0.124213,-0.127053 -0.1053492,-0.185138 -0.058986,-0.01106 -0.136563,0.0246 -0.1617813,-0.06752 -0.031439,-0.0718 -0.05911,-0.0181 -0.073024,0.02602 -0.075284,0.0375 -0.1177022,-0.06719 -0.1748273,-0.09943 0.036835,-0.06632 -0.068565,-0.03404 -0.036957,-0.09322 0.020737,-0.03872 -0.2655609,-0.110524 -0.2128958,-0.138779 0.1572794,-0.08445 0.293124,0.15358 0.3240321,0.150171 0.030827,-0.0034 0.059145,0.01261 0.025989,-0.0164 -0.033156,-0.02902 0.051567,0.02766 0.1375136,0.02323 0.085889,-0.0045 0.1324101,0.04726 0.1171527,0.11768 0.069352,-0.01904 0.061282,0.02363 0.1448701,0.07606 -0.032761,-0.102262 0.1094093,0.008 0.1094093,0.008 0,0 -2.624e-4,-0.101472 0.046368,-0.07421 -0.012595,-0.0567 0.021915,-0.06268 0.021915,-0.06268 0,0 -0.00243,-0.04614 0.043716,0.03109 z" />
        <path
           style="fill:#ffffff;fill-rule:evenodd;stroke:#000000;stroke-width:0.00691814"
           inkscape:connector-curvature="0"
           id="path2251"
           d="m 5.0013296,30.209343 c 0.016209,-0.01567 0.050819,-0.01106 0.059846,-0.02585 -0.00187,-0.02078 0.023175,0.0014 0.031949,-0.0072 0.025881,0.03812 0.069463,0.06429 0.083359,0.110295 -0.012601,-0.0069 -0.0067,-0.02665 0.00368,-0.0077 0.023626,0.02201 0.043245,0.0541 0.022547,0.08557 -0.00778,0.01694 0.00998,0.03881 -0.01849,0.03496 -0.00489,0.02942 0.038023,0.04084 0.030609,0.06587 -0.017531,0.02451 -0.021846,0.05418 -0.00514,0.08 0.015996,0.02729 -0.00219,0.05506 -0.010485,0.08 0.00613,0.02019 0.00775,0.0377 -0.011686,0.04931 -0.011715,0.02801 -0.041412,0.04003 -0.050532,0.07005 -0.014807,0.01281 -0.034787,0.0058 -0.050445,0.02058 -0.03099,-0.0065 -0.045766,0.0351 -0.076315,0.0324 -0.027144,7.13e-4 -0.054757,-0.01362 -0.078826,-0.0143 -0.022692,0.0094 -0.046765,0.01351 -0.071018,0.01082 -0.034419,0.0098 -0.030615,-0.039 -0.043745,-0.05896 0.00594,-0.02334 -0.010101,-0.03006 -0.026977,-0.01396 -0.030387,0.0097 -0.047804,-0.02761 -0.061271,-0.04864 -0.011969,-0.02458 -0.026881,-0.0472 -0.041566,-0.07002 -0.018604,-0.03995 -0.015101,-0.08814 -0.00118,-0.129245 0.00498,-0.0269 0.029666,-0.02116 0.046481,-0.01936 -6.956e-4,-0.02407 -0.00953,-0.06085 0.028228,-0.0522 0.022896,7.75e-4 0.078141,-0.0087 0.057966,-0.04185 -0.013285,-0.02985 0.024259,-0.05355 0.043158,-0.07136 0.02676,-0.01076 0.046485,-0.03107 0.066176,-0.04801 0.027293,0.0036 0.056421,-0.005 0.071278,-0.03062 0.013503,-0.01994 0.00363,-0.0051 -0.00175,0.0049" />
        <path
           style="opacity:0.09550602;fill-rule:evenodd;stroke-width:0.00850312"
           inkscape:connector-curvature="0"
           id="path4128"
           d="m 5.1313659,30.563891 c 0.017822,-0.01218 -0.035935,-0.02 -0.026931,-0.03471 -0.00187,-0.02078 0.00722,-0.01897 0.015976,-0.02745 0.025873,0.03812 0.037543,-0.03062 0.051414,0.01546 -0.012568,-0.007 0.00411,-0.05502 0.014488,-0.03605 0.023625,0.02201 0.035929,-0.04086 0.028515,-0.01583 -0.017531,0.02451 -0.021846,0.05418 -0.00514,0.08 0.015996,0.02729 -0.00219,0.05506 -0.010485,0.08 0.00613,0.02019 0.00775,0.0377 -0.011686,0.04931 -0.011715,0.02801 -0.041412,0.04003 -0.050532,0.07005 -0.014807,0.01281 -0.034787,0.0058 -0.050445,0.02058 -0.03099,-0.0065 -0.045766,0.0351 -0.076315,0.0324 -0.027144,7.13e-4 -0.054757,-0.01362 -0.078826,-0.0143 -0.022692,0.0094 -0.046765,0.01351 -0.071018,0.01082 -0.034419,0.0098 -0.030615,-0.039 -0.043745,-0.05896 0.00594,-0.02334 -0.010101,-0.03006 -0.026977,-0.01396 -0.030387,0.0097 -0.047804,-0.02761 -0.061271,-0.04864 -0.011969,-0.02458 0.067153,0.02316 0.052468,3.39e-4 -0.018605,-0.03995 0.050051,0.06296 0.064006,0.02178 0.00497,-0.02691 0.090962,0.06314 0.082637,0.01082 -6.875e-4,-0.02407 -0.010702,-0.0098 0.027053,-0.0012 0.022896,7.75e-4 0.09321,-0.02099 0.073059,-0.05422 -0.013285,-0.02985 0.00982,0.007 0.028723,-0.0108 0.02676,-0.01076 0.010118,-0.0054 0.02981,-0.02236 0.027301,0.0036 0.019016,-0.01049 0.033872,-0.03615 0.00163,0.03579 0.016751,-0.02704 0.011352,-0.01694 z" />
        <path
           style="fill-opacity:0.22346;fill-rule:evenodd;stroke-width:0.00850312"
           inkscape:connector-curvature="0"
           id="path5880"
           d="m 3.9871073,30.316969 c 0,0 -0.025906,-0.304964 -0.019267,-0.421594 0.00619,-0.109136 0.055536,-0.263811 0.1002207,-0.28193 0.04466,-0.01804 0.077293,0.04586 0.064722,0.106352 -0.01257,0.06049 -0.012742,0.07658 -0.07041,0.181946 -0.026147,0.04767 -0.056642,0.170249 -0.058687,0.231737 -0.00204,0.06149 -0.00809,0.201182 -0.016579,0.183489 z" />
      </g>
    </g>
  </g>
</svg>
